<?xml version="1.0" encoding="utf-8"?>
<!-- Generator: Adobe Illustrator 27.0.0, SVG Export Plug-In . SVG Version: 6.00 Build 0)  -->
<svg version="1.1" id="Layer_1" xmlns="http://www.w3.org/2000/svg" xmlns:xlink="http://www.w3.org/1999/xlink" x="0px" y="0px"
	 viewBox="0 0 55.6 50.7" style="enable-background:new 0 0 55.6 50.7;" xml:space="preserve">
<style type="text/css">
	.st0{fill:#D9D9D9;}
	.st1{fill-rule:evenodd;clip-rule:evenodd;fill:#D9D9D9;}
	.st2{fill-rule:evenodd;clip-rule:evenodd;fill:#FFFFFF;}
	.st3{fill-rule:evenodd;clip-rule:evenodd;fill:#545454;}
	.st4{fill:#545454;}
	.st5{fill:#FFFFFF;}
	.st6{fill-rule:evenodd;clip-rule:evenodd;fill:#231F20;}
	.st7{fill:#939393;}
	.st8{fill-rule:evenodd;clip-rule:evenodd;fill:#939393;}
	.st9{fill-rule:evenodd;clip-rule:evenodd;fill:#3C3C3C;}
	.st10{fill:#3C3C3C;}
	.st11{fill:#800080;}
	.st12{fill-rule:evenodd;clip-rule:evenodd;fill:#800080;}
	.st13{fill:#231F20;}
</style>
<g>
	<g>
		<path class="st7" d="M43.5,35.4C43.5,35.3,43.5,35.3,43.5,35.4c-1.1-2.8-2.3-5.5-3.5-8.2c-0.2-0.5-0.5-0.7-1.1-0.7
			c-0.5,0-1,0-1.5,0c-0.2,0-0.3,0.2-0.4,0.2c-1.5,2.7-3.2,5.2-5,7.6c-0.5,0.7-1.1,1.4-1.7,2c-1.4,1.7-3.8,1.7-5.2,0
			c-0.6-0.7-1.2-1.4-1.8-2.2c-0.7,0.3-1.3,0.7-2,1.1c0.2,0.2,0.2,0.2,0.3,0.3c2.3,2.3,4.7,4.7,7.1,7c0.2,0.2,0.4,0.2,0.6,0.1
			c3.5-1.8,7-3.6,10.5-5.4C41.2,36.6,42.4,36,43.5,35.4L43.5,35.4z M22.1,32.4C22.1,32.3,22.1,32.3,22.1,32.4
			c-1.2-2-2.4-3.8-3.6-5.7c-0.1-0.1-0.2-0.2-0.3-0.2c-0.4,0-0.8,0-1.2,0c-0.7-0.1-1.1,0.3-1.4,0.9c-1.4,3.5-2.9,6.8-4.4,10.3
			c-0.1,0.1-0.1,0.2-0.2,0.4C14.8,36.1,18.5,34.2,22.1,32.4L22.1,32.4z M31.3,44.2L31.3,44.2l0.3,0.1c4.6,0,9.2,0,13.8,0
			c1.1,0,1.6-0.8,1.1-1.7c-0.7-1.6-1.4-3.2-2-4.8c-0.1-0.1-0.1-0.2-0.2-0.3C40,39.7,35.7,41.9,31.3,44.2z"/>
		<path class="st7" d="M28.7,6.3c0.7,0.2,1.4,0.2,2,0.5c3.8,1.2,6.1,3.8,6.9,7.7c0.6,2.7,0.2,5.3-0.8,7.7c-1.1,2.7-2.6,5.3-4.3,7.7
			c-1.1,1.7-2.4,3.2-3.7,4.8c-0.6,0.8-1.4,0.8-2,0c-2.9-3.4-5.3-6.9-7.3-10.9c-0.8-1.7-1.5-3.5-1.7-5.3c-0.4-4.1,0.7-7.6,4.1-10.2
			c1.4-1.1,3-1.6,4.7-1.8c0.1,0,0.2-0.1,0.2-0.1C27.5,6.3,28.1,6.3,28.7,6.3z M27.9,19.7c1.9,0,3.3-1.5,3.4-3.3
			c0-1.8-1.5-3.3-3.3-3.3s-3.3,1.5-3.4,3.3C24.6,18.2,26,19.7,27.9,19.7L27.9,19.7z"/>
		<path class="st7" d="M8.9,42.8c0.2-0.5,0.4-0.9,0.6-1.3c0.1-0.2,0.2-0.3,0.3-0.4c3.1-1.6,6.2-3.2,9.3-4.7c0.2-0.1,0.3-0.2,0.5,0.1
			c2.4,2.4,4.8,4.8,7.2,7.2c0.1,0.1,0.1,0.2,0.2,0.2c-0.4,0.2-0.7,0.4-1.1,0.4c-5.2,0-10.4,0-15.6,0c-0.7,0-1.2-0.2-1.5-0.8
			C8.9,43.2,8.9,43,8.9,42.8z"/>
		<path class="st7" d="M43.5,35.4c-1.2,0.6-2.4,1.2-3.5,1.9c-3.5,1.8-7,3.6-10.5,5.4c-0.3,0.2-0.4,0.2-0.6-0.1
			c-2.3-2.3-4.7-4.7-7.1-7c-0.1-0.1-0.2-0.2-0.3-0.3c0.7-0.4,1.4-0.7,2-1.1c0.6,0.8,1.2,1.4,1.8,2.2c1.4,1.7,3.8,1.7,5.2,0
			c0.6-0.7,1.1-1.4,1.7-2c1.9-2.4,3.6-4.9,5-7.6c0.1-0.2,0.2-0.2,0.4-0.2c0.5,0,1,0,1.5,0c0.5,0,0.8,0.2,1.1,0.7
			C41.2,30,42.4,32.7,43.5,35.4C43.5,35.3,43.5,35.3,43.5,35.4L43.5,35.4z"/>
		<path class="st7" d="M22.1,32.4c-3.7,1.9-7.4,3.8-11.1,5.6c0.1-0.2,0.1-0.3,0.2-0.4c1.5-3.5,2.9-6.8,4.4-10.3
			c0.3-0.7,0.7-1,1.4-0.9c0.4,0,0.8,0,1.2,0c0.2,0,0.3,0.1,0.3,0.2c1.2,1.9,2.4,3.8,3.6,5.6C22.1,32.3,22.1,32.4,22.1,32.4
			L22.1,32.4z"/>
		<path class="st7" d="M31.3,44.2c4.4-2.3,8.7-4.5,13.1-6.8c0.1,0.2,0.2,0.2,0.2,0.3c0.7,1.6,1.4,3.2,2,4.8c0.5,1-0.1,1.7-1.1,1.7
			c-4.6,0-9.2,0-13.8,0L31.3,44.2C31.4,44.2,31.3,44.2,31.3,44.2z"/>
		<path class="st7" d="M27.9,17.5c0.6,0,1.1-0.5,1.1-1.1c0-0.6-0.5-1.1-1.1-1.1c-0.6,0-1.1,0.5-1.1,1.1
			C26.7,16.9,27.3,17.5,27.9,17.5L27.9,17.5z"/>
		<path class="st7" d="M27.9,17.5c-0.6,0-1.1-0.5-1.1-1.1c0-0.6,0.5-1.1,1.1-1.1c0.6,0,1.1,0.5,1.1,1.1C29,17,28.5,17.5,27.9,17.5
			L27.9,17.5z"/>
	</g>
</g>
</svg>
