<svg width="152" height="151" viewBox="0 0 152 151" fill="none" xmlns="http://www.w3.org/2000/svg">
<g filter="url(#filter0_dd_1_1457)">
<ellipse cx="68" cy="67.5" rx="36" ry="35.5" fill="#800080"/>
</g>
<g clip-path="url(#clip0_1_1457)">
<path d="M61.6338 90.5681C60.4049 90.3854 59.5018 89.6787 58.6522 88.8317C54.4549 84.6442 50.2363 80.4805 46.023 76.3062C44.8021 75.0966 44.3479 73.6725 44.957 72.0446C45.1681 71.4782 45.5448 70.9223 45.9776 70.4935C53.1752 63.3308 60.3942 56.1946 67.5998 49.0452C68.8181 47.8382 70.2474 47.6555 71.8745 47.9679C75.3851 48.6402 78.9118 49.2437 82.4305 49.8816C84.2419 50.2098 85.4254 51.3851 85.7594 53.193C86.438 56.8696 87.1033 60.5515 87.7766 64.2308C87.7926 64.3261 87.83 64.4161 87.8567 64.5087V65.5119C87.6376 66.7401 86.8708 67.6136 86.0105 68.4633C79.1576 75.2289 72.318 82.0078 65.4864 88.7946C64.6262 89.6469 63.7311 90.3907 62.4808 90.5681H61.6365H61.6338ZM70.6322 50.3131C70.007 50.2998 69.6383 50.5778 69.2883 50.9245C62.1495 58.0025 55.0053 65.0805 47.8638 72.1558C46.9929 73.0187 46.9955 73.7175 47.8718 74.5857C52.184 78.8579 56.4935 83.1275 60.8056 87.3997C61.7033 88.289 62.3953 88.289 63.2876 87.4076C68.2543 82.4869 73.2211 77.5662 78.1904 72.6455C80.3759 70.4803 82.5587 68.3124 84.7495 66.1525C85.217 65.6919 85.388 65.189 85.2651 64.5326C84.5919 60.9247 83.9453 57.3116 83.2881 53.6985C83.1331 52.8515 82.719 52.4704 81.8373 52.3142C79.0881 51.8245 76.3416 51.3295 73.5951 50.8372C72.5745 50.6545 71.5512 50.4745 70.6322 50.3131Z" fill="white"/>
<path d="M77.4852 54.6275C79.3901 54.6327 80.945 56.1759 80.9397 58.0526C80.9343 59.924 79.35 61.4884 77.4718 61.4778C75.5722 61.4672 74.0199 59.9187 74.0226 58.0394C74.0253 56.1548 75.5829 54.6222 77.4852 54.6275ZM77.4638 57.1394C76.9668 57.1447 76.5581 57.5471 76.5554 58.0394C76.5527 58.5397 76.9909 58.9738 77.4905 58.9658C77.9714 58.9579 78.3989 58.5317 78.4042 58.0553C78.4096 57.555 77.9794 57.1368 77.4638 57.1394Z" fill="white"/>
<path d="M64.514 71.9519C65.2594 72.1637 66.0128 72.3781 66.7662 72.5951C67.3326 72.7592 67.5036 73.0901 67.33 73.6777C67.1723 74.2151 66.8384 74.3818 66.264 74.2018C65.5025 73.9636 64.7251 73.7598 63.985 73.4713C63.5121 73.286 63.2209 73.3998 62.9537 73.8365C63.4774 74.3527 64.0171 74.8768 64.5514 75.4088C64.9548 75.8085 64.9495 76.1341 64.5354 76.547C64.1052 76.9785 63.7766 76.9864 63.3571 76.5708C61.8877 75.115 60.4183 73.6592 58.9488 72.2007C58.5026 71.7587 58.4973 71.5522 58.9355 71.1234C59.5339 70.5358 60.119 69.9296 60.7549 69.3843C61.3747 68.8523 62.1068 68.532 62.927 68.9026C63.8113 69.3023 64.4552 69.9481 64.5941 70.9487C64.6369 71.2531 64.5514 71.576 64.5193 71.9519H64.514ZM62.0587 72.8783C62.3553 72.5607 62.6705 72.2669 62.9323 71.9307C63.2262 71.5549 63.1487 71.1949 62.7453 70.7925C62.3392 70.3875 61.9759 70.3002 61.5992 70.5887C61.2518 70.8534 60.9473 71.179 60.632 71.4675C61.1182 71.9493 61.5591 72.386 62.056 72.8783H62.0587Z" fill="white"/>
<path d="M65.0082 67.2587C65.4491 67.6876 65.8632 68.0925 66.3414 68.5531C66.6326 68.2461 66.9399 67.9046 67.2632 67.5817C67.5864 67.2587 67.9124 67.2587 68.2116 67.5605C68.5028 67.857 68.5002 68.1481 68.1796 68.4684C67.8536 68.794 67.5116 69.1037 67.2017 69.3975C67.6506 69.8395 68.0647 70.2445 68.5242 70.6945C69.0853 70.1334 69.6944 69.5219 70.3089 68.9157C70.6936 68.5372 71.0169 68.5452 71.383 68.9343C71.7116 69.2837 71.7116 69.5643 71.3696 69.9084C70.5601 70.7183 69.7479 71.5257 68.9276 72.3277C68.4147 72.8306 68.1796 72.8227 67.6693 72.3171C66.2292 70.8904 64.7892 69.4663 63.3518 68.037C62.8949 67.5843 62.8842 67.3461 63.3438 66.8802C64.18 66.0359 65.0269 65.2021 65.8739 64.3709C66.1811 64.0692 66.491 64.093 66.8277 64.4159C67.183 64.7574 67.2178 65.075 66.9052 65.39C66.2746 66.0226 65.6334 66.6447 65.0109 67.2561L65.0082 67.2587Z" fill="white"/>
<path d="M72.6093 66.6527C73.189 66.073 73.7902 65.4669 74.394 64.866C74.768 64.4955 75.0699 64.4981 75.4386 64.8607C75.8073 65.2234 75.8073 65.5119 75.4253 65.8931C74.6238 66.6924 73.8196 67.4892 73.01 68.2806C72.4864 68.7915 72.2726 68.7862 71.7543 68.2727C70.3143 66.846 68.8742 65.4192 67.4342 63.9925C66.988 63.5505 66.9773 63.2884 67.4315 62.8332C68.2597 61.9994 69.0933 61.1762 69.9322 60.353C70.2689 60.0221 70.5654 60.038 70.9154 60.3768C71.2681 60.7209 71.2868 61.0544 70.9555 61.3879C70.3357 62.01 69.7105 62.6241 69.08 63.2461C69.5261 63.667 69.9402 64.0561 70.4078 64.4981C70.7017 64.199 71.0223 63.8575 71.3589 63.5293C71.6929 63.2037 71.9975 63.2064 72.3047 63.524C72.5933 63.8231 72.5879 64.1064 72.2673 64.4293C71.944 64.7549 71.6074 65.0672 71.2814 65.3822C71.7356 65.8163 72.1551 66.2186 72.612 66.6554L72.6093 66.6527Z" fill="white"/>
<path d="M56.6912 75.5305C57.1294 75.9593 57.5355 76.3564 57.979 76.7905C58.2782 76.4887 58.5988 76.1578 58.9248 75.8376C59.2614 75.5093 59.5633 75.4987 59.8732 75.7979C60.1912 76.1049 60.1885 76.3881 59.8465 76.7296C59.5206 77.0525 59.1813 77.3649 58.8072 77.7169C59.419 78.3178 59.9908 78.8842 60.5679 79.4427C60.7869 79.6545 60.9953 79.8662 60.8404 80.1997C60.6614 80.5836 60.3782 80.8774 59.94 80.9303C59.8038 80.9462 59.6194 80.835 59.5099 80.7265C57.9656 79.2098 56.4321 77.6825 54.8905 76.1631C54.6206 75.8958 54.5939 75.5993 54.837 75.3505C55.7401 74.4188 56.6618 73.5029 57.5943 72.5977C57.8267 72.3727 58.1954 72.4759 58.4786 72.7856C58.7751 73.1085 58.7965 73.4156 58.5133 73.7041C57.9549 74.2706 57.3859 74.8264 56.8195 75.3876C56.7714 75.4352 56.7259 75.4908 56.6939 75.5252L56.6912 75.5305Z" fill="white"/>
</g>
<defs>
<filter id="filter0_dd_1_1457" x="0" y="0" width="152" height="151" filterUnits="userSpaceOnUse" color-interpolation-filters="sRGB">
<feFlood flood-opacity="0" result="BackgroundImageFix"/>
<feColorMatrix in="SourceAlpha" type="matrix" values="0 0 0 0 0 0 0 0 0 0 0 0 0 0 0 0 0 0 127 0" result="hardAlpha"/>
<feOffset dx="8" dy="8"/>
<feGaussianBlur stdDeviation="20"/>
<feComposite in2="hardAlpha" operator="out"/>
<feColorMatrix type="matrix" values="0 0 0 0 0.501961 0 0 0 0 0 0 0 0 0 0.501961 0 0 0 0.1 0"/>
<feBlend mode="normal" in2="BackgroundImageFix" result="effect1_dropShadow_1_1457"/>
<feColorMatrix in="SourceAlpha" type="matrix" values="0 0 0 0 0 0 0 0 0 0 0 0 0 0 0 0 0 0 127 0" result="hardAlpha"/>
<feOffset dx="4" dy="4"/>
<feGaussianBlur stdDeviation="2"/>
<feComposite in2="hardAlpha" operator="out"/>
<feColorMatrix type="matrix" values="0 0 0 0 0.501961 0 0 0 0 0 0 0 0 0 0.501961 0 0 0 0.04 0"/>
<feBlend mode="normal" in2="effect1_dropShadow_1_1457" result="effect2_dropShadow_1_1457"/>
<feBlend mode="normal" in="SourceGraphic" in2="effect2_dropShadow_1_1457" result="shape"/>
</filter>
<clipPath id="clip0_1_1457">
<rect width="43.1669" height="42.7352" fill="white" transform="translate(44.6899 47.8328)"/>
</clipPath>
</defs>
</svg>
